<?xml version="1.0" standalone="no"?>
<!DOCTYPE svg PUBLIC "-//W3C//DTD SVG 20010904//EN"
 "http://www.w3.org/TR/2001/REC-SVG-20010904/DTD/svg10.dtd">
<svg version="1.0" xmlns="http://www.w3.org/2000/svg"
 width="629.000000pt" height="638.000000pt" viewBox="0 0 629.000000 638.000000"
 preserveAspectRatio="xMidYMid meet">

<g transform="translate(0.000000,638.000000) scale(0.100000,-0.100000)"
fill="#000000" stroke="none">
<path d="M120 4085 l0 -2295 85 0 85 0 0 2210 0 2210 2830 0 2830 0 0 -2210 0
-2210 85 0 85 0 0 2295 0 2295 -3000 0 -3000 0 0 -2295z"/>
<path d="M2075 3213 c-572 -762 -1044 -1393 -1048 -1402 -4 -9 16 9 45 40 29
31 373 386 763 789 l710 732 5 -319 5 -320 280 414 c154 227 283 413 286 413
4 0 125 -123 270 -274 l264 -274 5 179 5 180 296 -298 c162 -164 513 -518 779
-788 266 -269 479 -483 474 -474 -16 29 -2089 2788 -2094 2788 -3 0 -473 -624
-1045 -1386z"/>
<path d="M1543 1385 c-81 -22 -132 -52 -193 -114 -222 -222 -172 -683 89 -816
158 -79 360 -69 490 25 l41 30 0 215 0 215 -170 0 -170 0 0 -70 0 -70 95 0 95
0 0 -104 0 -104 -33 -15 c-82 -39 -192 -29 -274 26 -37 25 -56 48 -83 101 -34
68 -35 71 -35 190 1 132 16 189 69 258 54 72 182 113 272 89 22 -6 61 -25 85
-41 l44 -30 47 52 c53 59 53 60 -20 110 -92 63 -232 84 -349 53z"/>
<path d="M2490 1386 c-70 -20 -128 -54 -175 -101 -141 -141 -178 -442 -79
-652 39 -82 132 -173 209 -203 85 -34 234 -34 318 -1 71 28 162 110 200 179
40 74 67 191 67 291 -1 227 -86 388 -246 463 -56 26 -80 31 -158 34 -55 2
-108 -2 -136 -10z m181 -146 c56 -16 112 -71 144 -142 23 -52 29 -81 33 -163
10 -233 -83 -380 -242 -380 -142 0 -230 111 -243 307 -18 264 118 431 308 378z"/>
<path d="M4356 1384 c-55 -17 -111 -50 -143 -85 -61 -67 -82 -194 -43 -274 39
-82 84 -116 245 -185 183 -78 205 -97 205 -173 0 -71 -59 -111 -165 -111 -76
0 -145 25 -215 78 l-35 27 -47 -53 c-26 -29 -48 -58 -48 -64 0 -15 53 -55 118
-88 167 -85 376 -69 484 37 79 76 105 174 74 279 -25 89 -88 139 -263 211
-164 68 -198 95 -198 158 0 112 175 144 310 58 26 -17 51 -27 55 -22 3 4 23
29 44 54 l37 47 -32 26 c-100 84 -260 117 -383 80z"/>
<path d="M120 900 l0 -480 81 0 82 0 -7 318 c-3 174 -8 340 -11 367 -4 40 7
17 53 -115 32 -91 85 -236 117 -322 l58 -158 53 0 c48 0 53 2 62 28 35 97 174
479 196 537 l26 70 -5 -55 c-2 -30 -7 -193 -11 -362 l-7 -308 82 0 81 0 0 480
0 481 -97 -3 -98 -3 -37 -105 c-21 -58 -70 -199 -109 -315 -40 -116 -75 -214
-79 -218 -4 -4 -13 14 -20 40 -7 26 -58 173 -113 326 l-99 277 -99 0 -99 0 0
-480z"/>
<path d="M3270 901 l0 -481 90 0 90 0 0 185 0 186 71 -3 71 -3 101 -182 101
-183 98 0 99 0 -25 43 c-13 23 -65 112 -114 197 l-89 155 47 27 c100 57 146
148 138 277 -6 90 -30 145 -85 190 -70 58 -104 64 -360 69 l-233 4 0 -481z
m438 319 c53 -24 76 -71 69 -143 -9 -99 -65 -135 -221 -144 l-106 -6 0 156 0
157 108 0 c84 0 116 -5 150 -20z"/>
<path d="M5020 900 l0 -480 90 0 90 0 0 143 0 142 60 75 c33 41 63 76 67 77 5
2 64 -94 132 -213 68 -119 129 -218 136 -220 6 -3 50 -4 98 -2 l86 3 -166 280
c-91 154 -167 286 -170 293 -3 7 10 31 29 55 19 23 85 106 146 185 l112 142
-97 0 -98 0 -165 -212 -165 -211 -3 211 -2 212 -90 0 -90 0 0 -480z"/>
<path d="M5950 900 l0 -480 90 0 90 0 0 480 0 480 -90 0 -90 0 0 -480z"/>
</g>
</svg>
